# Blender v2.80 (sub 75) OBJ File: 'scene.blend'
# www.blender.org
mtllib grid.mtl
o light
v -2.657980 2.939692 1.000000
v -3.342020 1.060307 1.000000
v -2.657980 2.939692 -1.000000
v -3.342020 1.060307 -1.000000
vn 0.9397 -0.3420 0.0000
usemtl light
s off
f 2//1 3//1 1//1
f 2//1 4//1 3//1
o floor_diffuse
v -4.000000 0.000000 8.000000
v 4.000000 0.000000 8.000000
v -4.000000 0.000000 -8.000000
v 4.000000 0.000000 -8.000000
vn 0.0000 1.0000 0.0000
usemtl diffuse
s off
f 6//2 7//2 5//2
f 6//2 8//2 7//2
o grid
v -0.965926 0.241181 1.000000
v 0.000000 0.500000 1.000000
v -0.965926 0.241181 0.000000
v 0.000000 0.500000 0.000000
v 0.482963 0.629410 1.000000
v 0.482963 0.629410 0.000000
v -0.490963 0.368447 1.000000
v -0.490963 0.368447 0.000000
v 0.000000 0.500000 -0.500000
v -0.965926 0.241181 -0.500000
v 0.482963 0.629410 -0.500000
v -0.490963 0.368447 -0.500000
v -0.965926 0.241181 0.500000
v 0.000000 0.500000 0.500000
v 0.482963 0.629410 0.500000
v -0.490963 0.368447 0.500000
v -0.245481 0.434223 1.000000
v -0.245481 0.434223 0.000000
v -0.245481 0.434223 -0.500000
v -0.245481 0.434223 0.500000
v 0.241481 0.564705 0.000000
v 0.241481 0.564705 1.000000
v 0.241481 0.564705 -0.500000
v 0.241481 0.564705 0.500000
v 0.724444 0.694114 1.000000
v 0.724444 0.694114 0.000000
v 0.724444 0.694114 -0.500000
v 0.724444 0.694114 0.500000
v -0.728444 0.304814 0.000000
v -0.728444 0.304814 1.000000
v -0.728444 0.304814 -0.500000
v -0.728444 0.304814 0.500000
v 0.000000 0.500000 -0.750000
v 0.482963 0.629410 -0.750000
v -0.490963 0.368447 -0.750000
v -0.965926 0.241181 -0.750000
v -0.245481 0.434223 -0.750000
v 0.241481 0.564705 -0.750000
v 0.724444 0.694114 -0.750000
v -0.728444 0.304814 -0.750000
v -0.965926 0.241181 -0.250000
v 0.000000 0.500000 -0.250000
v 0.482963 0.629410 -0.250000
v -0.490963 0.368447 -0.250000
v -0.245481 0.434223 -0.250000
v 0.241481 0.564705 -0.250000
v 0.724444 0.694114 -0.250000
v -0.728444 0.304814 -0.250000
v 0.000000 0.500000 0.250000
v 0.482963 0.629410 0.250000
v -0.490963 0.368447 0.250000
v -0.965926 0.241181 0.250000
v -0.245481 0.434223 0.250000
v 0.241481 0.564705 0.250000
v 0.724444 0.694114 0.250000
v -0.728444 0.304814 0.250000
v -0.965926 0.241181 0.750000
v 0.000000 0.500000 0.750000
v 0.482963 0.629410 0.750000
v -0.490963 0.368447 0.750000
v -0.245481 0.434223 0.750000
v 0.241481 0.564705 0.750000
v 0.724444 0.694114 0.750000
v -0.728444 0.304814 0.750000
vt 0.375000 0.125000
vt 0.250000 0.250000
vt 0.250000 0.125000
vt 0.375000 0.625000
vt 0.250000 0.750000
vt 0.250000 0.625000
vt 0.375000 0.375000
vt 0.250000 0.500000
vt 0.250000 0.375000
vt 0.625000 0.125000
vt 0.500000 0.250000
vt 0.500000 0.125000
vt 0.625000 0.625000
vt 0.500000 0.750000
vt 0.500000 0.625000
vt 0.625000 0.375000
vt 0.500000 0.500000
vt 0.500000 0.375000
vt 0.875000 0.125000
vt 0.750000 0.250000
vt 0.750000 0.125000
vt 0.875000 0.625000
vt 0.750000 0.750000
vt 0.750000 0.625000
vt 0.875000 0.375000
vt 0.750000 0.500000
vt 0.750000 0.375000
vt 0.125000 0.125000
vt 0.000000 0.250000
vt 0.000000 0.125000
vt 0.125000 0.625000
vt 0.000000 0.750000
vt 0.000000 0.625000
vt 0.125000 0.375000
vt 0.000000 0.500000
vt 0.000000 0.375000
vt 0.125000 0.750000
vt 0.000000 0.875000
vt 0.875000 0.750000
vt 0.750000 0.875000
vt 0.625000 0.750000
vt 0.500000 0.875000
vt 0.375000 0.750000
vt 0.250000 0.875000
vt 0.125000 0.875000
vt 0.625000 0.875000
vt 0.375000 0.875000
vt 0.125000 0.500000
vt 0.875000 0.500000
vt 0.625000 0.500000
vt 0.375000 0.500000
vt 0.125000 0.250000
vt 0.875000 0.250000
vt 0.625000 0.250000
vt 0.375000 0.250000
vt 0.125000 0.000000
vt 0.000000 0.000000
vt 0.875000 0.000000
vt 0.750000 0.000000
vt 0.625000 0.000000
vt 0.500000 0.000000
vt 0.375000 0.000000
vt 0.250000 0.000000
vt 0.875000 0.875000
vn -0.2588 0.9659 0.0000
usemtl grid
s off
f 69/1/3 24/2/3 68/3/3
f 53/4/3 20/5/3 52/6/3
f 61/7/3 16/8/3 59/9/3
f 70/10/3 22/11/3 66/12/3
f 54/13/3 17/14/3 50/15/3
f 62/16/3 12/17/3 57/18/3
f 71/19/3 23/20/3 67/21/3
f 55/22/3 19/23/3 51/24/3
f 63/25/3 14/26/3 58/27/3
f 72/28/3 21/29/3 65/30/3
f 56/31/3 18/32/3 49/33/3
f 64/34/3 11/35/3 60/36/3
f 39/37/3 44/38/3 18/32/3
f 35/39/3 42/40/3 19/23/3
f 31/41/3 41/42/3 17/14/3
f 27/43/3 43/44/3 20/5/3
f 20/5/3 48/45/3 39/37/3
f 19/23/3 46/46/3 31/41/3
f 17/14/3 45/47/3 27/43/3
f 37/48/3 49/33/3 11/35/3
f 34/49/3 51/24/3 14/26/3
f 29/50/3 50/15/3 12/17/3
f 26/51/3 52/6/3 16/8/3
f 12/17/3 53/4/3 26/51/3
f 14/26/3 54/13/3 29/50/3
f 16/8/3 56/31/3 37/48/3
f 40/52/3 60/36/3 21/29/3
f 36/53/3 58/27/3 23/20/3
f 32/54/3 57/18/3 22/11/3
f 28/55/3 59/9/3 24/2/3
f 24/2/3 64/34/3 40/52/3
f 23/20/3 62/16/3 32/54/3
f 22/11/3 61/7/3 28/55/3
f 38/56/3 65/30/3 9/57/3
f 33/58/3 67/21/3 13/59/3
f 30/60/3 66/12/3 10/61/3
f 25/62/3 68/3/3 15/63/3
f 10/61/3 69/1/3 25/62/3
f 13/59/3 70/10/3 30/60/3
f 15/63/3 72/28/3 38/56/3
f 69/1/3 28/55/3 24/2/3
f 53/4/3 27/43/3 20/5/3
f 61/7/3 26/51/3 16/8/3
f 70/10/3 32/54/3 22/11/3
f 54/13/3 31/41/3 17/14/3
f 62/16/3 29/50/3 12/17/3
f 71/19/3 36/53/3 23/20/3
f 55/22/3 35/39/3 19/23/3
f 63/25/3 34/49/3 14/26/3
f 72/28/3 40/52/3 21/29/3
f 56/31/3 39/37/3 18/32/3
f 64/34/3 37/48/3 11/35/3
f 39/37/3 48/45/3 44/38/3
f 35/39/3 47/64/3 42/40/3
f 31/41/3 46/46/3 41/42/3
f 27/43/3 45/47/3 43/44/3
f 20/5/3 43/44/3 48/45/3
f 19/23/3 42/40/3 46/46/3
f 17/14/3 41/42/3 45/47/3
f 37/48/3 56/31/3 49/33/3
f 34/49/3 55/22/3 51/24/3
f 29/50/3 54/13/3 50/15/3
f 26/51/3 53/4/3 52/6/3
f 12/17/3 50/15/3 53/4/3
f 14/26/3 51/24/3 54/13/3
f 16/8/3 52/6/3 56/31/3
f 40/52/3 64/34/3 60/36/3
f 36/53/3 63/25/3 58/27/3
f 32/54/3 62/16/3 57/18/3
f 28/55/3 61/7/3 59/9/3
f 24/2/3 59/9/3 64/34/3
f 23/20/3 58/27/3 62/16/3
f 22/11/3 57/18/3 61/7/3
f 38/56/3 72/28/3 65/30/3
f 33/58/3 71/19/3 67/21/3
f 30/60/3 70/10/3 66/12/3
f 25/62/3 69/1/3 68/3/3
f 10/61/3 66/12/3 69/1/3
f 13/59/3 67/21/3 70/10/3
f 15/63/3 68/3/3 72/28/3
