# Blender v2.79 (sub 0) OBJ File: 'scene.blend'
# www.blender.org
mtllib star_diffuse.mtl
o star
v -3.000000 0.692251 0.000000
v -3.000000 0.036474 -0.881678
v -3.000000 1.077646 -0.530451
v -3.000000 1.713525 -1.426585
v -3.000000 1.701229 -0.327837
v -3.000000 2.750000 0.000000
v -3.000000 1.701229 0.327837
v -3.000000 1.713526 1.426585
v -3.000000 1.077646 0.530451
v -3.000000 0.036474 0.881678
vn 1.0000 -0.0000 0.0000
usemtl star
s off
f 7//1 9//1 1//1
f 1//1 2//1 3//1
f 3//1 4//1 5//1
f 5//1 6//1 7//1
f 7//1 8//1 9//1
f 9//1 10//1 1//1
f 1//1 3//1 5//1
f 5//1 7//1 1//1
o floor
v -4.000000 0.000000 4.000000
v 4.000000 0.000000 4.000000
v -4.000000 0.000000 -4.000000
v 4.000000 0.000000 -4.000000
vn 0.0000 1.0000 0.0000
usemtl diffuse
s off
f 11//2 12//2 14//2 13//2
